<svg width="140" height="140" viewBox="-10 -10 140 140" fill="none" xmlns="http://www.w3.org/2000/svg">
<path d="M71.8824 45C67.6971 45 64.1251 46.4994 61.1786 49.4968C60.7579 49.9306 60.3609 50.3758 60 50.8346C59.6391 50.3758 59.2421 49.9306 58.8214 49.4968C55.8749 46.4994 52.3029 45 48.1176 45C43.9322 45 40.3723 46.4994 37.4137 49.4968C34.4672 52.4941 33 56.1199 33 60.375V72.4337C33 74.2671 34.4552 75.75 36.2592 75.75C38.0392 75.75 39.4823 74.2841 39.4823 72.4766V60.5206C39.4823 58.3174 40.2157 56.1453 41.683 54.5164C43.3429 52.6614 45.3633 51.6881 47.7446 51.5963C50.3543 51.4959 52.9043 52.6152 54.636 54.6021C56.0551 56.2297 56.7649 58.1535 56.7649 60.375V72.4328C56.7649 74.2657 58.22 75.75 60.0241 75.75C61.804 75.75 63.2351 74.2855 63.2351 72.4804V60.375C63.2351 58.1535 63.9449 56.2287 65.364 54.6021C67.0957 52.6152 69.6457 51.4959 72.2554 51.5963C74.6367 51.6881 76.6571 52.6628 78.3291 54.5202C79.7843 56.1491 80.5177 58.3197 80.5177 60.5234V72.3249C80.5177 74.2167 82.0331 75.75 83.8853 75.75C85.605 75.75 87 74.333 87 72.5868V60.375C87 56.1199 85.5332 52.4941 82.5863 49.4968C79.6277 46.4994 76.0678 45 71.8824 45Z" fill="white"/>
<g>
	<path opacity="0.2" fill-rule="evenodd" clip-rule="evenodd" d="M60 3.63642C28.8714 3.63642 3.63642 28.8714 3.63642 60C3.63642 91.1286 28.8714 116.364 60 116.364C91.1286 116.364 116.364 91.1286 116.364 60C116.364 47.4654 112.274 35.8912 105.356 26.5321C104.759 25.7244 104.93 24.586 105.737 23.9893C106.545 23.3921 107.683 23.563 108.28 24.3703C115.645 34.3345 120 46.6613 120 60C120 93.1373 93.1373 120 60 120C26.8627 120 0 93.1373 0 60C0 26.8627 26.8627 0 60 0C69.2255 0 77.9692 2.08343 85.7823 5.80669C86.6886 6.2386 87.0733 7.32373 86.6414 8.2305C86.2095 9.13681 85.1244 9.52156 84.2176 9.08918C76.8831 5.59378 68.6727 3.63642 60 3.63642Z" fill="white"/>
	<path d="M104.25 15.7502C104.25 20.3064 100.556 24 96.0002 24C91.4436 24 87.75 20.3064 87.75 15.7502C87.75 11.1936 91.4436 7.5 96.0002 7.5C100.556 7.5 104.25 11.1936 104.25 15.7502Z" fill="#FF1377"/>
	<animateTransform
      attributeName="transform"
      attributeType="XML"
      type="rotate"
      from="0 60 60"
      to="360 60 60"
      dur="3s"
      repeatCount="indefinite" />
</g>
</svg>
